<svg xmlns="http://www.w3.org/2000/svg" version="1.1" xmlns:xlink="http://www.w3.org/1999/xlink" xmlns:svgjs="http://svgjs.dev/svgjs" width="1500" height="1377" viewBox="0 0 1500 1377"><g transform="matrix(1,0,0,1,-0.80026001336023,0.5574898785423557)"><svg viewBox="0 0 269 247" data-background-color="#ffffff" preserveAspectRatio="xMidYMid meet" height="1377" width="1500" xmlns="http://www.w3.org/2000/svg" xmlns:xlink="http://www.w3.org/1999/xlink"><g id="tight-bounds" transform="matrix(1,0,0,1,0.14351329572926375,-0.0999999999999801)"><svg viewBox="0 0 268.7129734085415 247.19999999999996" height="247.19999999999996" width="268.7129734085415"><g><svg viewBox="0 0 268.7129734085415 247.19999999999996" height="247.19999999999996" width="268.7129734085415"><g><svg viewBox="0 0 268.7129734085415 247.19999999999996" height="247.19999999999996" width="268.7129734085415"><g id="textblocktransform"><svg viewBox="0 0 268.7129734085415 247.19999999999996" height="247.19999999999996" width="268.7129734085415" id="textblock"><g><svg viewBox="0 0 268.7129734085415 247.19999999999996" height="247.19999999999996" width="268.7129734085415"><g transform="matrix(1,0,0,1,0,0)"><svg width="268.7129734085415" viewBox="1.22 -30.27 32.94 30.29" height="247.19999999999996" data-palette-color="url(#ccc60da9-0494-4d11-a266-c7e0eeee68ce)"></svg></g></svg></g></svg></g></svg></g></svg></g><defs></defs><mask id="41c9b560-93d1-414c-9220-ed4f69a79ae6"><g id="SvgjsG1606"><svg viewBox="0 0 268.7129734085415 247.19999999999996" height="247.19999999999996" width="268.7129734085415"><g><svg viewBox="0 0 268.7129734085415 247.19999999999996" height="247.19999999999996" width="268.7129734085415"><g><svg viewBox="0 0 268.7129734085415 247.19999999999996" height="247.19999999999996" width="268.7129734085415"><g id="SvgjsG1605"><svg viewBox="0 0 268.7129734085415 247.19999999999996" height="247.19999999999996" width="268.7129734085415" id="SvgjsSvg1604"><g><svg viewBox="0 0 268.7129734085415 247.19999999999996" height="247.19999999999996" width="268.7129734085415"><g transform="matrix(1,0,0,1,0,0)"><svg width="268.7129734085415" viewBox="1.22 -30.27 32.94 30.29" height="247.19999999999996" data-palette-color="url(#ccc60da9-0494-4d11-a266-c7e0eeee68ce)"><path d="M1.22-29.22L7.71-29.2 14.26-29.22Q14.38-28.71 14.7-27.61 15.01-26.51 15.31-25.42L15.31-25.42 15.77-23.58Q16.75-26.05 16.97-26.32L16.97-26.32 17.36-26.81Q19.82-30.27 24.93-30.27L24.93-30.27Q27.34-30.27 29.53-28.82 31.71-27.37 32.93-25.04 34.16-22.71 34.16-20.12L34.16-20.12Q34.16-19.82 34.08-19.65L34.08-19.65 34.08-4.64 34.11 0.02 19.82 0.02 19.78-12.18 19.87-14.67Q19.87-18.41 17.9-18.41L17.9-18.41Q15.77-18.41 15.77-14.87L15.77-14.87Q15.77-14.09 15.8-13.79L15.8-13.79 15.8-13.43 15.82-13.01 15.82 0 8.54 0.02 1.25 0.02 1.22-14.62 1.22-29.22Z" opacity="1" transform="matrix(1,0,0,1,0,0)" fill="white" class="wordmark-text-0" id="SvgjsPath1603"></path></svg></g></svg></g></svg></g></svg></g></svg></g><defs><mask></mask></defs></svg><rect width="268.7129734085415" height="247.19999999999996" fill="black" stroke="none" visibility="hidden"></rect></g></mask><linearGradient x1="0" x2="1" y1="0.548" y2="0.55" id="ccc60da9-0494-4d11-a266-c7e0eeee68ce"><stop stop-color="#ff6cab" offset="0"></stop><stop stop-color="#7366ff" offset="1"></stop></linearGradient><rect width="268.7129734085415" height="247.19999999999996" fill="url(#ccc60da9-0494-4d11-a266-c7e0eeee68ce)" mask="url(#41c9b560-93d1-414c-9220-ed4f69a79ae6)" data-fill-palette-color="primary"></rect></svg><rect width="268.7129734085415" height="247.19999999999996" fill="none" stroke="none" visibility="hidden"></rect></g></svg></g></svg>